<svg width="24" height="24" viewBox="0 0 24 24" fill="none" xmlns="http://www.w3.org/2000/svg">
<mask id="mask0" mask-type="alpha" maskUnits="userSpaceOnUse" x="0" y="0" width="24" height="24">
<rect width="24" height="24" fill="#C4C4C4"/>
</mask>
<g mask="url(#mask0)">
<path fill-rule="evenodd" clip-rule="evenodd" d="M15.461 1C15.5452 2.09937 15.1976 3.18826 14.4919 4.03542C13.8073 4.88699 12.7699 5.37749 11.6773 5.36624C11.6078 4.29851 11.9656 3.24696 12.6718 2.44319C13.3871 1.62853 14.3829 1.11324 15.461 1ZM18.9164 7.45921C17.6596 8.23187 16.8862 9.59449 16.8672 11.0697C16.869 12.7387 17.8685 14.2449 19.4057 14.895C19.1101 15.8554 18.6644 16.7629 18.0853 17.5841C17.3076 18.7475 16.4922 19.8841 15.1979 19.9051C14.5824 19.9193 14.1669 19.7423 13.7339 19.5579C13.2823 19.3655 12.8117 19.165 12.0753 19.165C11.2943 19.165 10.8027 19.3719 10.3285 19.5715C9.91867 19.744 9.52193 19.9109 8.9628 19.9341C7.73024 19.9798 6.78825 18.6924 5.98225 17.54C4.37129 15.1864 3.11686 10.9073 4.7986 7.99562C5.58832 6.57652 7.0649 5.67602 8.6881 5.62358C9.38716 5.60919 10.058 5.87863 10.6461 6.11485C11.0958 6.29551 11.4972 6.45674 11.8259 6.45674C12.1149 6.45674 12.5051 6.30187 12.9598 6.12139C13.6761 5.83709 14.5526 5.48922 15.4458 5.58298C16.8338 5.6264 18.12 6.32173 18.9164 7.45921Z" fill="#2C3135"/>
</g>
</svg>
