<svg width="24" height="24" viewBox="0 0 24 24" fill="none" xmlns="http://www.w3.org/2000/svg">
<mask id="mask0" mask-type="alpha" maskUnits="userSpaceOnUse" x="0" y="0" width="24" height="24">
<rect width="24" height="24" fill="#C4C4C4"/>
</mask>
<g mask="url(#mask0)">
<path fill-rule="evenodd" clip-rule="evenodd" d="M15.388 8.68219L13.0599 11.0103L5.05019 3C5.27305 3.00771 5.51834 3.07429 5.78045 3.22286L15.388 8.68219ZM4 4.25076C4 4.14494 4.00701 4.04682 4.02102 3.95361L12.0686 12.0011L4.02102 20.0493C4.00701 19.9553 4 19.8551 4 19.75V4.25076ZM13.0599 12.9922L5.05228 20.9998C5.27514 20.9913 5.51903 20.9255 5.78043 20.7769L15.3866 15.3189L13.0599 12.9922ZM16.6518 9.39941L19.4474 10.9883C20.4264 11.5448 20.4264 12.456 19.4474 13.0125L16.6511 14.6014L14.0511 12.0011L16.6518 9.39941Z" fill="#2C3135"/>
</g>
</svg>
